<svg width="104" height="49" viewBox="0 0 104 49" version="1.1" xmlns="http://www.w3.org/2000/svg"><title>Uhr Logo</title><g id="XXXX-UHR_1_Lookbook_Landing" stroke="none" stroke-width="1" fill="none" fill-rule="evenodd"><g id="XXXX-UHR_1.1.6_Lookbook" transform="translate(-70 -40)" fill="#231916"><g id="Top-Nav-Bar" transform="translate(70 40)"><g id="Uhr-Logo"><path d="M11.814 48.152c-2.344-.569-4.382-1.52-6.112-2.85-1.733-1.33-3.095-3.04-4.087-5.131-.993-2.09-1.49-4.635-1.49-7.634 0-1.688.011-3.199.034-4.529.02-1.33.03-2.565.03-3.706 0-1.14.01-2.238.033-3.294.021-1.055.03-2.154.03-3.294 0-3.42-.02-6.186-.063-8.299-.042-2.11-.106-3.694-.19-4.75.845.085 1.711.158 2.599.22.886.064 1.751.096 2.597.096.843 0 1.71-.032 2.596-.095a89.245 89.245 0 0 0 2.598-.221c-.423 4.097-.676 7.908-.76 11.434a444.392 444.392 0 0 0-.126 10.737c0 3.843.273 6.948.823 9.312.548 2.366 1.361 4.192 2.438 5.48 1.077 1.288 2.397 2.144 3.959 2.565 1.563.422 3.379.634 5.448.634 2.533 0 4.52-.634 5.954-1.9 1.437-1.268 2.524-2.956 3.264-5.068.738-2.111 1.192-4.53 1.361-7.254.17-2.724.254-5.563.254-8.52a298.619 298.619 0 0 0-.507-17.42c.591.085 1.162.158 1.71.22.548.064 1.056.096 1.52.096.55 0 1.078-.032 1.585-.095a54.54 54.54 0 0 0 1.582-.221 107.54 107.54 0 0 0-.253 3.737 416.614 416.614 0 0 0-.253 5.416 419.57 419.57 0 0 0-.221 6.778 305.522 305.522 0 0 0-.096 7.823c0 7.35-1.583 12.618-4.75 15.805-3.167 3.19-7.814 4.784-13.937 4.784-2.703 0-5.226-.286-7.57-.856" id="Fill-1"/><path d="M47.13 10.936A454.28 454.28 0 0 0 46.75.42c.548.086 1.246.158 2.09.222a35.58 35.58 0 0 0 2.662.095c.927 0 1.814-.032 2.66-.095.844-.064 1.54-.136 2.09-.222-.17 3.548-.296 7.054-.38 10.516a464.329 464.329 0 0 0-.127 11.402l.127.127c1.098-1.774 2.438-3.145 4.023-4.118 1.582-.97 3.388-1.456 5.416-1.456 3.168 0 5.607.918 7.316 2.755 1.712 1.837 2.566 4.804 2.566 8.9 0 2.155-.042 4.055-.126 5.702a96.045 96.045 0 0 0-.127 4.94c0 1.353.031 2.82.095 4.403.063 1.584.137 3.115.222 4.593-.55-.085-1.247-.127-2.091-.127h-5.321c-.845 0-1.543.042-2.091.127.295-2.195.485-4.783.57-7.76.084-2.977.128-6.387.128-10.23 0-2.661-.455-4.614-1.363-5.86-.91-1.245-2.185-1.87-3.832-1.87-1.9 0-3.294.824-4.181 2.471-.888 1.648-1.33 3.928-1.33 6.842v2.534c0 .592.01 1.447.031 2.566.021 1.119.052 2.344.095 3.674.041 1.33.095 2.682.159 4.054.063 1.373.136 2.565.22 3.579-.549-.085-1.245-.127-2.09-.127h-5.32c-.845 0-1.543.042-2.091.127.17-3.42.296-6.862.38-10.325.085-3.463.127-7.264.127-11.403v-4.118c0-4.138-.042-7.939-.127-11.402" id="Fill-4"/><path d="M92.614 25.57c1.098-2.915 2.427-5.058 3.991-6.43 1.561-1.373 3.42-2.06 5.574-2.06.21 0 .39.011.54.032.148.023.305.032.473.032-.126.634-.22 1.31-.283 2.027a29.056 29.056 0 0 0-.097 2.534v3.104c0 .38.022.74.064 1.077l-.57.507a6.78 6.78 0 0 0-1.426-.633c-.528-.169-1.13-.254-1.805-.254-1.9 0-3.4.623-4.496 1.869-1.099 1.246-1.648 2.714-1.648 4.403v2.533c0 2.576.031 5.005.095 7.285.063 2.28.2 4.477.412 6.588-.548-.085-1.23-.127-2.047-.127h-5.316c-.798 0-1.488.042-2.076.127.184-2.11.305-4.307.36-6.588.056-2.28.084-4.709.084-7.285v-2.533c0-2.576-.028-4.994-.084-7.254-.055-2.259-.176-4.53-.36-6.81.712.085 1.435.159 2.168.221a25.24 25.24 0 0 0 2.17.096c.713 0 1.436-.032 2.17-.096a64.654 64.654 0 0 0 2.17-.22l-.19 7.728.127.126z" id="Fill-7"/></g></g></g></g></svg>